<svg version="1.1" id="Layer_1" xmlns="http://www.w3.org/2000/svg" xmlns:xlink="http://www.w3.org/1999/xlink" x="0px" y="0px"
	 width="100%" viewBox="0 0 1024 1024" enable-background="new 0 0 1024 1024" xml:space="preserve">
<path fill="#000000" opacity="1.000000" stroke="none" 
	d="
M352.957886,543.783386 
	C343.022797,569.757874 326.140198,590.019897 305.231354,607.250793 
	C287.833344,621.588562 268.955872,633.812500 249.945404,645.832458 
	C241.336060,651.275940 232.323746,651.845154 223.564011,646.303589 
	C201.463181,632.322266 179.427719,618.214905 159.777100,600.803589 
	C132.423996,576.567627 115.540558,546.593140 110.912544,510.141663 
	C109.993080,502.899780 109.939735,495.519104 109.898117,488.200104 
	C109.780624,467.539276 110.162262,446.872040 109.784401,426.217621 
	C109.548531,413.324554 114.770767,403.436768 124.129959,395.207062 
	C141.158707,380.233276 161.850891,373.236542 183.280991,367.626770 
	C204.763290,362.003326 226.666199,359.995422 248.599350,361.877563 
	C280.975525,364.655884 312.369537,371.729034 340.298462,389.631409 
	C346.652039,393.704041 352.230133,398.701080 356.550232,404.974457 
	C360.429443,410.607605 362.424225,416.719696 362.373016,423.692474 
	C362.207764,446.185852 362.214935,468.681824 362.351379,491.175629 
	C362.460602,509.181702 359.465149,526.589050 352.957886,543.783386 
M281.772156,448.603943 
	C281.697021,446.438995 281.831635,444.242828 281.514282,442.113983 
	C278.418121,421.344055 260.926788,404.827606 239.630814,402.472900 
	C221.016891,400.414734 201.046677,413.242218 193.545288,431.933350 
	C190.357544,439.876221 190.162231,448.143036 190.329498,456.492920 
	C190.377625,458.895203 190.431870,460.966766 186.948257,461.367126 
	C178.440292,462.344879 175.375732,465.966522 175.361816,474.459320 
	C175.328217,494.959229 175.304596,515.459351 175.364639,535.959106 
	C175.412445,552.283386 188.518875,565.605896 204.800003,565.713440 
	C224.965683,565.846680 245.156113,565.154358 265.291901,565.942139 
	C280.742737,566.546509 297.896454,553.686340 297.113129,534.269958 
	C296.602875,521.623291 296.993713,508.940643 296.963440,496.274170 
	C296.943909,488.108673 297.070740,479.937225 296.795258,471.779816 
	C296.600891,466.023102 292.874054,461.443390 287.853241,461.536224 
	C282.370758,461.637543 281.272980,459.147614 281.761261,454.562927 
	C281.936737,452.915344 281.782745,451.232666 281.772156,448.603943 
z"/>
<path fill="#000000" opacity="1.000000" stroke="none" 
	d="
M742.331177,474.370972 
	C727.075623,472.231842 716.920166,480.843811 714.524658,495.485352 
	C712.091614,510.356659 720.376526,524.013672 733.890198,527.069519 
	C741.893066,528.879150 749.814575,526.607544 753.932434,520.097717 
	C759.155701,511.840393 765.752808,514.256714 773.150391,514.238098 
	C772.600830,519.928528 770.287292,524.258179 767.072876,528.038147 
	C756.719177,540.213928 743.264465,543.638794 728.275513,540.011475 
	C712.849731,536.278442 703.070984,526.089661 699.779053,510.464050 
	C695.745178,491.316711 702.314697,474.533600 717.055237,465.594574 
	C734.606873,454.950867 763.423584,459.489349 771.719604,481.392883 
	C772.297729,482.919250 773.172058,484.393066 772.834412,486.118500 
	C765.432495,489.149292 759.258057,487.608673 754.442932,481.565796 
	C751.414612,477.765320 747.469360,475.462708 742.331177,474.370972 
z"/>
<path fill="#000000" opacity="1.000000" stroke="none" 
	d="
M814.736328,498.225647 
	C805.125610,492.311615 795.625366,497.441772 795.390564,508.429626 
	C795.198608,517.413574 795.224609,526.406982 795.396301,535.391602 
	C795.466736,539.076965 794.099854,540.371216 790.448608,540.318481 
	C779.103271,540.154724 780.861816,540.852051 780.826538,531.209961 
	C780.749207,510.071838 780.908386,488.931885 780.665100,467.796204 
	C780.610901,463.087524 781.817932,460.904846 786.748352,461.599884 
	C789.343689,461.965759 792.032715,461.118805 795.131104,462.163330 
	C795.131104,470.497772 795.131104,478.913849 795.131104,488.636963 
	C800.996765,484.369629 806.399048,482.093811 812.810242,482.492310 
	C823.746765,483.172058 831.180603,488.716217 831.938782,499.676056 
	C832.853027,512.892212 832.155212,526.219971 832.155212,539.803589 
	C828.535095,540.701477 825.060242,540.204407 821.630981,540.198425 
	C818.339417,540.192627 818.681702,537.675598 818.673645,535.545593 
	C818.640747,526.890625 818.643921,518.235474 818.654663,509.580383 
	C818.659729,505.472260 817.806824,501.661743 814.736328,498.225647 
z"/>
<path fill="#000000" opacity="1.000000" stroke="none" 
	d="
M841.368225,528.112549 
	C839.204163,515.606689 845.494751,507.871368 858.372803,506.687408 
	C862.671448,506.292175 866.974487,505.839752 871.284607,505.706543 
	C874.596252,505.604156 875.181458,503.916321 874.741394,501.140198 
	C874.206787,497.767822 872.039307,495.749817 869.032776,494.843262 
	C865.391663,493.745361 861.014160,493.466705 858.937012,496.883392 
	C854.804443,503.681122 848.955383,500.818909 843.565918,501.154602 
	C842.603760,494.852936 846.212158,488.034180 852.401245,485.082886 
	C862.064575,480.474884 871.829529,480.855682 881.042664,486.247131 
	C888.154419,490.408905 889.746887,497.830292 890.049072,505.255890 
	C890.461487,515.391357 890.099243,525.556519 890.199524,535.707642 
	C890.233826,539.180969 888.699280,540.671997 885.360291,540.243530 
	C881.690369,539.772461 877.236206,542.064087 874.911926,537.238953 
	C859.961182,545.219604 845.829224,541.460388 841.368225,528.112549 
M871.232178,515.262024 
	C867.429871,515.332275 863.583740,515.105225 860.006287,516.794067 
	C857.432190,518.009216 855.682251,519.962036 855.477234,522.850586 
	C855.310974,525.193115 856.629150,527.021362 858.546509,528.197510 
	C862.327698,530.517029 866.202087,529.998962 869.880188,527.939880 
	C873.417175,525.959717 875.585388,523.022095 875.659363,518.747437 
	C875.703491,516.198181 874.627075,515.043579 871.232178,515.262024 
z"/>
<path fill="#000000" opacity="1.000000" stroke="none" 
	d="
M695.266235,490.110443 
	C686.569580,512.676819 677.905273,534.840576 669.526611,557.111816 
	C668.070557,560.982239 666.270508,562.973206 661.996948,562.368835 
	C658.924011,561.934143 655.716553,562.886963 652.339233,561.578125 
	C653.902039,555.174927 656.785278,549.371277 659.298340,543.461182 
	C660.718750,540.120728 660.616577,537.197876 659.190918,533.913696 
	C652.762329,519.104065 646.489624,504.226807 640.176147,489.367340 
	C639.537659,487.864532 639.003113,486.317535 638.263855,484.381409 
	C643.095764,482.994232 647.691772,483.705383 652.219666,483.793976 
	C654.562012,483.839752 654.777832,486.154572 655.455688,487.754517 
	C659.026245,496.182404 662.518127,504.643616 666.037964,513.093018 
	C666.659241,514.584412 667.021851,516.256287 668.654541,517.133728 
	C671.179993,515.913574 671.576111,513.437378 672.416077,511.368042 
	C675.546082,503.657074 678.744507,495.961517 681.477051,488.107056 
	C682.751282,484.444366 684.680969,483.045593 688.403870,483.602661 
	C691.154602,484.014221 694.002808,483.070740 696.785278,483.959473 
	C697.289124,486.210449 695.905640,487.874115 695.266235,490.110443 
z"/>
<path fill="#000000" opacity="1.000000" stroke="none" 
	d="
M492.753021,501.001526 
	C492.749969,496.173920 492.813507,491.844452 492.715271,487.518646 
	C492.654175,484.826080 493.663269,483.576294 496.488617,483.612030 
	C509.759430,483.779938 507.026855,481.986603 507.264404,493.800140 
	C507.414978,501.287933 507.249359,508.781525 507.321594,516.271606 
	C507.392639,523.639343 511.424591,528.426575 517.566895,528.618103 
	C523.485046,528.802612 529.294617,523.500183 529.568787,516.873352 
	C529.946838,507.732605 529.994812,498.560486 529.703552,489.417114 
	C529.553650,484.712311 531.258118,483.068451 535.729431,483.598236 
	C537.371887,483.792847 539.057190,483.705597 540.718811,483.640869 
	C543.270081,483.541534 544.277588,484.732666 544.270569,487.245941 
	C544.224609,503.725128 544.228394,520.204529 544.250305,536.683838 
	C544.253662,539.188843 543.152344,540.362305 540.629395,540.279480 
	C538.800537,540.219360 536.960938,540.177246 535.138367,540.303833 
	C532.059570,540.517822 529.457458,540.114319 529.268005,535.812805 
	C524.237000,539.653992 519.127258,541.341125 513.466309,541.299011 
	C500.504974,541.202637 493.211731,533.399841 492.794739,518.978699 
	C492.626434,513.157288 492.756836,507.327271 492.753021,501.001526 
z"/>
<path fill="#000000" opacity="1.000000" stroke="none" 
	d="
M416.693085,522.998535 
	C416.688141,508.514618 416.569733,494.529083 416.749969,480.547363 
	C416.802521,476.472260 415.541870,474.773102 411.329376,475.039093 
	C407.186310,475.300690 403.010345,475.032990 398.848755,475.014343 
	C396.660736,475.004517 395.696167,474.156708 395.514313,471.748596 
	C394.773071,461.934723 394.674530,461.498016 404.351013,461.374054 
	C419.478943,461.180176 434.615997,460.707275 449.752808,461.364014 
	C452.321899,461.475464 453.193542,462.218689 453.376038,464.777283 
	C454.107941,475.039948 454.116394,475.032898 443.888702,475.085480 
	C430.336884,475.155182 432.108002,473.300232 432.047821,487.068573 
	C431.979431,502.716980 431.923218,518.367981 432.154388,534.013611 
	C432.222168,538.603027 431.126648,540.593140 426.071594,540.398193 
	C415.183472,539.978333 416.845032,541.081909 416.698303,530.989746 
	C416.662018,528.493042 416.693268,525.995483 416.693085,522.998535 
z"/>
<path fill="#000000" opacity="1.000000" stroke="none" 
	d="
M556.165527,522.889282 
	C560.912537,522.763123 565.254944,522.139709 567.848206,527.074280 
	C568.472107,528.261475 570.609253,528.876587 572.173523,529.300232 
	C575.494629,530.199524 580.650940,527.598267 581.192078,524.664978 
	C581.944641,520.585999 578.469177,519.713562 575.793762,518.711243 
	C572.227051,517.375000 568.450867,516.610657 564.814453,515.445251 
	C556.267822,512.706177 551.114197,506.013428 551.813232,498.719086 
	C552.562805,490.898407 559.600769,483.760925 568.057068,482.814789 
	C572.826477,482.281158 577.701050,482.186737 582.362488,483.952271 
	C585.549561,485.159424 588.518372,486.806671 590.221619,489.804901 
	C591.950928,492.848938 594.860046,496.113403 592.258850,499.752991 
	C590.667969,501.978851 581.471313,499.989471 579.320129,497.358795 
	C577.889832,495.609650 576.213745,494.325958 573.873291,494.237671 
	C570.614502,494.114716 567.127441,494.089050 566.330322,498.170837 
	C565.554688,502.142609 568.762390,503.190521 571.722107,504.045197 
	C576.023804,505.287354 580.456116,506.146393 584.653870,507.663635 
	C591.810608,510.250305 595.275269,515.450134 595.344910,522.859680 
	C595.419373,530.783203 592.143311,536.031128 585.129883,538.936340 
	C577.934692,541.916870 570.585327,542.189026 563.182373,539.746155 
	C557.586609,537.899597 554.024658,533.964294 551.819397,528.591248 
	C550.174744,524.583984 551.071045,522.512268 556.165527,522.889282 
z"/>
<path fill="#000000" opacity="1.000000" stroke="none" 
	d="
M621.277771,507.058899 
	C621.276794,511.206390 621.249817,514.865112 621.279358,518.523376 
	C621.339294,525.930847 623.718994,528.075684 630.972168,527.349792 
	C631.772034,527.269775 632.586853,527.338989 633.542297,527.338989 
	C634.986511,530.746094 634.173767,534.244995 634.223877,537.665283 
	C634.251587,539.554565 633.040833,540.311279 631.308228,540.281799 
	C627.331299,540.214050 623.328430,540.763306 619.386230,539.810913 
	C612.172485,538.068115 608.692688,534.241028 607.558960,526.844421 
	C606.265015,518.402954 607.200378,509.910217 607.012085,501.443909 
	C606.937561,498.094482 606.341797,495.898987 602.334167,496.320587 
	C599.848694,496.582031 598.598083,495.269684 598.760925,492.760193 
	C599.032715,488.574188 596.686096,482.759399 604.731689,483.404694 
	C606.289307,483.529602 606.799988,481.953247 606.860229,480.521759 
	C606.923218,479.027435 606.769104,477.509003 606.977295,476.039001 
	C607.355347,473.370148 605.469971,469.669342 608.414551,468.245483 
	C611.644714,466.683533 615.600586,467.597229 619.236389,467.881927 
	C620.617676,467.990082 621.081787,469.140289 621.173645,470.399902 
	C621.233948,471.228241 621.221069,472.062256 621.291626,472.889435 
	C621.570740,476.162018 619.992004,480.051117 622.145081,482.568146 
	C624.290466,485.076263 628.120178,483.330139 631.201843,483.471802 
	C633.219238,483.564575 634.359009,484.256439 634.291687,486.403992 
	C634.270874,487.068085 634.304382,487.733948 634.314270,488.398987 
	C634.429504,496.169189 634.429016,496.149963 626.598328,496.349304 
	C624.974976,496.390625 623.253479,496.058105 621.680115,497.263245 
	C620.849487,500.274597 621.451843,503.444336 621.277771,507.058899 
z"/>
<path fill="#000000" opacity="1.000000" stroke="none" 
	d="
M903.828491,482.729492 
	C905.214050,479.011810 904.641174,475.486603 904.615295,472.022980 
	C904.591309,468.812897 905.762329,467.367554 908.993225,467.647003 
	C909.985229,467.732758 911.010315,467.781738 911.987671,467.633240 
	C917.015625,466.869354 918.591370,468.879578 918.458740,473.979126 
	C918.194031,484.159332 916.859131,483.713104 928.000854,483.586884 
	C928.962097,483.575989 929.925049,483.718262 931.315613,483.821045 
	C931.315613,487.016479 931.243347,489.972626 931.336975,492.923523 
	C931.422241,495.610535 929.993896,496.394379 927.609192,496.328125 
	C925.778809,496.277252 923.943420,496.410553 922.112671,496.365295 
	C919.375000,496.297699 918.255005,497.521088 918.309875,500.298401 
	C918.428528,506.293793 918.317017,512.293335 918.349426,518.290894 
	C918.390381,525.884216 920.820923,528.036377 928.433899,527.330688 
	C929.083984,527.270447 929.744629,527.322815 930.577026,527.322815 
	C932.069397,530.690491 931.149353,534.196045 931.261902,537.606628 
	C931.324341,539.502686 930.103455,540.278992 928.377869,540.258728 
	C924.232483,540.210205 920.071045,540.773254 915.958313,539.632446 
	C908.883850,537.670044 904.838196,532.671997 904.703308,525.049377 
	C904.558777,516.888184 904.601807,508.722015 904.692566,500.559479 
	C904.721497,497.955658 904.019775,496.214172 901.125916,496.445709 
	C894.649353,496.963898 896.348694,492.261719 895.966736,488.712402 
	C895.485229,484.238403 897.872986,483.250366 901.636841,483.531647 
	C902.253418,483.577759 902.901245,483.204834 903.828491,482.729492 
z"/>
<path fill="#000000" opacity="1.000000" stroke="none" 
	d="
M453.798126,515.000000 
	C453.796173,505.835327 453.916016,497.168121 453.735107,488.507202 
	C453.659088,484.868835 454.885406,483.210663 458.615967,483.592804 
	C460.100159,483.744843 461.624603,483.740845 463.110077,483.596039 
	C466.664520,483.249481 469.065643,484.142395 468.334015,489.272705 
	C473.154694,485.059082 477.646851,482.206635 483.552704,482.587463 
	C486.321198,482.765930 487.441620,483.768250 487.350891,486.502777 
	C487.242218,489.777222 487.325256,493.057983 487.325256,495.870575 
	C486.410400,496.387665 486.272003,496.533630 486.131439,496.535767 
	C471.544830,496.753571 468.337036,500.092438 468.324738,515.083069 
	C468.319122,521.914856 468.204254,528.749023 468.354675,535.577393 
	C468.427734,538.893799 467.431854,540.296631 463.840851,540.360107 
	C453.796295,540.537598 453.799835,540.688477 453.801758,530.496643 
	C453.802704,525.497742 453.799652,520.498901 453.798126,515.000000 
z"/>
<path fill="#000000" opacity="1.000000" stroke="none" 
	d="
M207.687897,457.806763 
	C207.932205,451.871490 207.068985,446.399231 208.548157,440.960693 
	C212.285156,427.220642 224.950455,418.291016 238.966690,419.746246 
	C252.810318,421.183563 263.398163,432.170258 264.368591,446.165253 
	C264.621094,449.807129 264.735352,453.458832 264.895416,457.106781 
	C265.019379,459.931793 263.912506,461.343201 260.819916,461.326691 
	C244.516830,461.239594 228.213058,461.283356 211.909515,461.282166 
	C209.797836,461.282013 207.798264,461.127228 207.687897,457.806763 
z"/>
<path fill="#000000" opacity="1.000000" stroke="none" 
	d="
M245.744553,491.105896 
	C252.856522,498.403687 253.415298,507.914001 246.986679,515.067200 
	C244.854523,517.439697 244.243973,519.769104 244.307022,522.701782 
	C244.407196,527.360535 244.258163,532.024353 244.328171,536.684265 
	C244.365997,539.200684 243.340164,540.429932 240.781219,540.256836 
	C240.616013,540.245667 240.448624,540.272339 240.282288,540.271423 
	C224.998123,540.186951 227.966064,541.736328 227.749710,528.554382 
	C227.649368,522.440186 227.898865,516.729675 223.400635,511.294525 
	C219.115250,506.116516 220.811081,496.931458 225.253159,492.387665 
	C230.228104,487.298767 237.882629,486.725189 245.744553,491.105896 
z"/>
</svg>